<?xml version="1.0" standalone="no"?>
<!DOCTYPE svg PUBLIC "-//W3C//DTD SVG 20010904//EN"
 "http://www.w3.org/TR/2001/REC-SVG-20010904/DTD/svg10.dtd">
<svg version="1.0" xmlns="http://www.w3.org/2000/svg"
 width="920.000000pt" height="686.000000pt" viewBox="0 0 920.000000 686.000000"
 preserveAspectRatio="xMidYMid meet">
<metadata>
Created by potrace 1.15, written by Peter Selinger 2001-2017
</metadata>
<g transform="translate(0.000000,686.000000) scale(0.100000,-0.100000)"
fill="#000000" stroke="none">
<path d="M4590 6390 c10 -33 22 -80 25 -103 11 -63 61 -151 148 -260 20 -26
22 -39 20 -120 -3 -141 -6 -146 -88 -167 -66 -17 -342 -123 -409 -157 -172
-87 -292 -344 -312 -665 -4 -60 -10 -108 -14 -108 -14 0 -127 79 -192 133
-220 188 -381 515 -395 807 -6 139 10 219 64 323 36 68 130 175 197 226 16 12
26 25 22 29 -4 4 -137 7 -294 7 -225 -1 -312 -4 -402 -19 -672 -104 -1199
-361 -1653 -806 -212 -207 -370 -407 -521 -660 -89 -150 -182 -328 -175 -334
3 -3 29 4 59 15 127 48 259 33 342 -40 83 -74 106 -151 203 -681 53 -289 85
-434 105 -469 10 -18 6 -25 36 69 25 83 78 181 116 217 64 61 122 68 213 25
118 -56 217 -158 511 -522 185 -229 278 -332 361 -402 37 -31 69 -55 71 -54 1
2 -23 46 -54 97 -185 303 -292 611 -348 998 -15 101 -33 212 -40 246 -16 76
-17 75 109 75 178 0 352 -87 516 -257 71 -73 166 -198 214 -281 29 -49 45 -64
45 -41 0 29 59 130 104 178 188 198 500 139 618 -117 17 -37 32 -69 34 -71 1
-1 29 10 61 25 76 37 186 41 248 8 54 -28 130 -124 151 -191 38 -121 152 -294
429 -649 361 -464 457 -636 472 -851 19 -261 -111 -520 -338 -674 -136 -92
-304 -149 -440 -149 -106 0 -169 15 -269 62 -202 96 -345 322 -326 517 16 179
173 331 340 331 151 0 268 -154 209 -277 -34 -72 -127 -96 -177 -47 -14 15
-26 31 -26 37 0 6 -3 8 -6 5 -3 -3 1 -21 9 -40 11 -26 26 -39 58 -52 110 -44
209 41 209 180 0 73 -24 128 -75 173 -69 60 -117 76 -230 76 -90 0 -106 -3
-160 -29 -109 -54 -192 -165 -230 -306 -19 -72 -19 -230 0 -305 40 -151 158
-302 297 -379 310 -172 671 -165 982 18 134 79 285 244 361 395 113 225 159
452 135 671 -33 306 -149 569 -418 950 -112 157 -148 224 -164 303 -11 52 -10
61 7 94 35 65 115 138 168 152 63 18 141 9 211 -24 32 -15 59 -25 60 -24 2 2
17 34 34 71 77 168 239 258 410 228 87 -15 147 -47 208 -111 45 -48 104 -149
104 -178 0 -23 16 -8 45 41 48 83 143 208 214 281 164 170 338 257 516 257
126 0 125 1 109 -75 -7 -34 -25 -145 -40 -246 -56 -387 -163 -695 -348 -998
-31 -51 -55 -95 -54 -97 2 -1 34 23 71 54 83 70 176 173 361 402 294 364 393
466 511 522 91 43 149 36 213 -25 38 -36 91 -134 116 -217 30 -94 26 -87 36
-69 20 35 52 180 105 469 97 530 120 607 203 681 83 73 215 88 342 40 30 -11
56 -18 59 -15 7 6 -86 184 -175 334 -151 253 -309 453 -521 660 -454 445 -981
702 -1653 806 -90 15 -177 18 -402 19 -157 0 -290 -3 -294 -7 -4 -4 6 -17 22
-29 120 -90 219 -235 250 -365 23 -97 14 -268 -21 -391 -110 -393 -373 -688
-715 -803 l-65 -22 -23 29 c-90 108 -138 145 -281 218 -107 55 -200 135 -230
199 -18 37 -20 50 -11 94 12 67 31 102 74 140 43 38 87 51 190 59 77 6 78 6
67 -15 -30 -56 -13 -73 204 -217 168 -112 184 -117 228 -78 23 22 21 48 -6 70
-39 31 -73 85 -103 163 -16 41 -46 102 -68 135 l-39 60 6 112 c6 114 18 155
58 205 l22 27 -41 68 c-61 101 -76 151 -68 232 18 173 18 181 7 181 -6 0 -11
-1 -11 -2 -1 -2 -8 -39 -16 -83 -27 -136 -28 -159 -4 -237 12 -40 30 -89 41
-109 l18 -37 -29 -37 c-17 -21 -35 -56 -40 -79 -16 -63 -28 -86 -45 -86 -8 0
-21 10 -29 23 -19 30 -31 184 -17 220 14 37 2 58 -52 90 -52 31 -118 101 -145
154 -11 21 -25 65 -32 98 -16 79 -39 135 -55 135 -10 0 -9 -14 5 -60z"/>
</g>
</svg>
